<svg xmlns="http://www.w3.org/2000/svg" xmlns:xlink="http://www.w3.org/1999/xlink" fill="none" version="1.1" width="164" height="32" viewBox="0 0 164 32"><path d="M46.1775389,26.005341Q43.8553939,26.005341,42.5887692,24.790064Q41.322145,23.574785,41.322145,21.197648L41.322145,8.4038458L44.620646,8.4038458L44.620646,21.117521Q44.620646,22.132477,45.1352124,22.693377Q45.6497788,23.254272,46.573358999999996,23.254272Q47.6816559,23.254272,48.4205198,22.666666L49.3441,25.043802Q48.7635651,25.524572,47.9191484,25.764957Q47.0747309,26.005341,46.1775389,26.005341ZM39,14.2264957L39,11.5555558L48.3941326,11.5555558L48.3941326,14.2264957L39,14.2264957ZM57.154951,26.005341Q54.806418,26.005341,53.051617,25.057158Q51.296815,24.108973,50.333652,22.452991Q49.370489,20.797007999999998,49.370489,18.686965Q49.370489,16.550214,50.307263,14.9075851Q51.244039,13.2649574,52.893288,12.3301287Q54.542539,11.395299900000001,56.653580000000005,11.395299900000001Q58.711845,11.395299900000001,60.321514,12.3034186Q61.931180999999995,13.2115388,62.854760999999996,14.8675213Q63.778341,16.523504000000003,63.778341,18.767094Q63.778341,18.980769000000002,63.76515,19.247864Q63.751954999999995,19.514957000000003,63.725567,19.755342L51.982903,19.755342L51.982903,17.538462000000003L61.983959,17.538462000000003L60.690947,18.232905000000002Q60.717332999999996,17.004272999999998,60.189572999999996,16.069445Q59.661814,15.1346159,58.751427,14.6004276Q57.84104,14.0662394,56.653580000000005,14.0662394Q55.439732,14.0662394,54.529346000000004,14.6004276Q53.618958,15.1346159,53.104393,16.082799Q52.589827,17.030982,52.589827,18.313034000000002L52.589827,18.847222000000002Q52.589827,20.129272,53.170362,21.117521Q53.750898,22.105768,54.806418,22.639956Q55.861937999999995,23.174145,57.234117999999995,23.174145Q58.421577,23.174145,59.371545999999995,22.800213Q60.321514,22.426283,61.060379,21.625L62.828375,23.681623Q61.878406999999996,24.803417,60.440259999999995,25.404379Q59.002113,26.005341,57.154951,26.005341ZM72.512775,26.005341Q70.164242,26.005341,68.40943899999999,25.057158Q66.654636,24.108973,65.691473,22.452991Q64.728312,20.797007999999998,64.728312,18.686965Q64.728312,16.550214,65.665085,14.9075851Q66.60186,13.2649574,68.251112,12.3301287Q69.900362,11.395299900000001,72.011402,11.395299900000001Q74.069664,11.395299900000001,75.679333,12.3034186Q77.289005,13.2115388,78.21258499999999,14.8675213Q79.136166,16.523504000000003,79.136166,18.767094Q79.136166,18.980769000000002,79.122971,19.247864Q79.109776,19.514957000000003,79.08338499999999,19.755342L67.340723,19.755342L67.340723,17.538462000000003L77.341782,17.538462000000003L76.04876300000001,18.232905000000002Q76.075153,17.004272999999998,75.547394,16.069445Q75.019634,15.1346159,74.109249,14.6004276Q73.198864,14.0662394,72.011402,14.0662394Q70.797554,14.0662394,69.887167,14.6004276Q68.976782,15.1346159,68.462214,16.082799Q67.947649,17.030982,67.947649,18.313034000000002L67.947649,18.847222000000002Q67.947649,20.129272,68.52818500000001,21.117521Q69.108721,22.105768,70.164242,22.639956Q71.219761,23.174145,72.591942,23.174145Q73.77940000000001,23.174145,74.729366,22.800213Q75.679333,22.426283,76.41819799999999,21.625L78.186195,23.681623Q77.23622499999999,24.803417,75.79808,25.404379Q74.359936,26.005341,72.512775,26.005341ZM81.24720400000001,25.818375L81.24720400000001,11.5555558L84.38737900000001,11.5555558L84.38737900000001,15.3482904L83.833229,14.2264957Q84.545704,12.8376064,85.90469,12.1164536Q87.263668,11.395299900000001,89.00528,11.395299900000001Q90.98437899999999,11.395299900000001,92.448914,12.383547799999999Q93.913448,13.371794699999999,94.388432,15.375L93.095421,14.9209404Q93.78150600000001,13.3183765,95.364788,12.3568377Q96.948071,11.395299900000001,99.032722,11.395299900000001Q100.721554,11.395299900000001,102.027763,12.0630345Q103.333969,12.7307696,104.072838,14.1063032Q104.811699,15.4818373,104.811699,17.645299L104.811699,25.818375L101.513195,25.818375L101.513195,18.072649Q101.513195,16.176282,100.695164,15.2414522Q99.87714,14.3066235,98.346634,14.3066235Q97.264725,14.3066235,96.433502,14.7873936Q95.602283,15.2681627,95.140491,16.202991Q94.678703,17.137819999999998,94.678703,18.580129L94.678703,25.818375L91.380199,25.818375L91.380199,18.072649Q91.380199,16.176282,90.562172,15.2414522Q89.744141,14.3066235,88.213638,14.3066235Q87.131729,14.3066235,86.30051,14.7873936Q85.469284,15.2681627,85.007492,16.202991Q84.545704,17.137819999999998,84.545704,18.580129L84.545704,25.818375L81.24720400000001,25.818375ZM113.94194,25.951921Q111.962837,25.951921,110.392761,25.043802Q108.82267,24.135681,107.925476,22.519764Q107.02829,20.903845,107.02829,18.793802Q107.02829,16.657051,107.925476,15.0544872Q108.82267,13.4519238,110.392761,12.557158000000001Q111.962837,11.6623936,113.94194,11.6623936Q115.762718,11.6623936,117.200859,12.490384599999999Q118.639015,13.3183765,119.49662,14.9075851Q120.354233,16.496795,120.354233,18.793802Q120.354233,21.064101,119.509811,22.666666Q118.665405,24.26923,117.227249,25.110575Q115.789101,25.951921,113.94194,25.951921ZM114.073883,24.26923Q115.551613,24.26923,116.725883,23.58814Q117.900146,22.907051,118.573044,21.665063Q119.245934,20.423077,119.245934,18.793802Q119.245934,17.137819999999998,118.573044,15.9091873Q117.900146,14.6805553,116.725883,13.9994659Q115.551613,13.3183765,114.073883,13.3183765Q112.622543,13.3183765,111.461472,13.9994659Q110.3004,14.6805553,109.614311,15.9091873Q108.928223,17.137819999999998,108.928223,18.793802Q108.928223,20.423077,109.614311,21.665063Q110.3004,22.907051,111.461472,23.58814Q112.622543,24.26923,114.073883,24.26923ZM119.298714,25.818375L119.298714,21.598289L119.483421,18.767094L119.219543,15.9358978L119.219543,6L121.093094,6L121.093094,25.818375L119.298714,25.818375ZM125.262398,25.818375L125.262398,11.7959409L127.056786,11.7959409L127.056786,15.6153841L126.87207,14.94765Q127.452606,13.3450856,128.82477599999999,12.5037394Q130.19696,11.6623936,132.228828,11.6623936L132.228828,13.5053415Q132.123276,13.5053415,132.017731,13.4919872Q131.91217799999998,13.4786325,131.806625,13.4786325Q129.616417,13.4786325,128.376183,14.8274574Q127.135948,16.176282,127.135948,18.660255L127.135948,25.818375L125.262398,25.818375ZM140.09244999999999,25.951921Q138.08696700000002,25.951921,136.490494,25.030449Q134.89402,24.108973,133.970436,22.493055Q133.04685999999998,20.877136,133.04685999999998,18.793802Q133.04685999999998,16.683761,133.970436,15.0811968Q134.89402,13.4786325,136.477303,12.5705128Q138.060585,11.6623936,140.09244999999999,11.6623936Q142.15073,11.6623936,143.74719,12.5705128Q145.34367,13.4786325,146.25405999999998,15.0811968Q147.16444,16.683761,147.16444,18.793802Q147.16444,20.877136,146.25405999999998,22.493055Q145.34367,24.108973,143.73399999999998,25.030449Q142.12434000000002,25.951921,140.09244999999999,25.951921ZM140.09244999999999,24.26923Q141.59656999999999,24.26923,142.75763999999998,23.58814Q143.91872,22.907051,144.59161,21.665063Q145.2645,20.423077,145.2645,18.793802Q145.2645,17.137819999999998,144.59161,15.9091873Q143.91872,14.6805553,142.75763999999998,13.9994659Q141.59656999999999,13.3183765,140.11884,13.3183765Q138.64111300000002,13.3183765,137.480042,13.9994659Q136.31896999999998,14.6805553,135.632881,15.9091873Q134.946793,17.137819999999998,134.946793,18.793802Q134.946793,20.423077,135.632881,21.665063Q136.31896999999998,22.907051,137.480042,23.58814Q138.64111300000002,24.26923,140.09244999999999,24.26923ZM157.08634,25.951921Q155.29194999999999,25.951921,153.84061,25.110575Q152.38927,24.26923,151.53166,22.680021Q150.67406,21.090811000000002,150.67406,18.793802Q150.67406,16.496795,151.51846,14.9075851Q152.36288000000002,13.3183765,153.81422,12.490384599999999Q155.26556,11.6623936,157.08634,11.6623936Q159.06544,11.6623936,160.63553000000002,12.557158000000001Q162.20560999999998,13.4519238,163.1028,15.0678425Q164,16.683761,164,18.793802Q164,20.930554,163.1028,22.533117Q162.20560999999998,24.135681,160.63553000000002,25.043802Q159.06544,25.951921,157.08634,25.951921ZM149.93519,30.999998L149.93519,11.7959409L151.72958,11.7959409L151.72958,16.016026L151.54485,18.820513L151.80874,21.65171L151.80874,30.999998L149.93519,30.999998ZM156.95440000000002,24.26923Q158.43213,24.26923,159.5932,23.58814Q160.75427000000002,22.907051,161.44036,21.665063Q162.12645,20.423077,162.12645,18.793802Q162.12645,17.16453,161.44036,15.9358978Q160.75427000000002,14.7072649,159.5932,14.0128202Q158.43213,13.3183765,156.95440000000002,13.3183765Q155.47667,13.3183765,154.30241,14.0128202Q153.12814,14.7072649,152.45525,15.9358978Q151.78235,17.16453,151.78235,18.793802Q151.78235,20.423077,152.45525,21.665063Q153.12814,22.907051,154.30241,23.58814Q155.47667,24.26923,156.95440000000002,24.26923Z" fill="#000000" fill-opacity="1"/><path d="M4.000011419924,2.3801746C4.0000051128823,1.0656422,5.1221263,0,6.506335,0C7.8905439,0,9.0126653,1.0656421,9.0126591,2.3801746L9.0126591,25.652887Q9.0126591,26.31015,9.502049,26.774906Q9.9914398,27.239662,10.6835418,27.239662L12.4936638,27.239662C13.8778734,27.239656,15,28.305296,15,29.619827C15,30.934359,13.8778734,31.999996,12.4936657,31.99999L10.6835418,31.99999Q7.9151349,31.99999,5.9575721,30.140966Q4.000011419924,28.28194,4.000011419924,25.652887L4.000011419924,2.3801746Z" fill-rule="evenodd" fill="#000000" fill-opacity="1"/><path d="M0,8.5C0,7.1192881,1.0793135,6,2.4107141,6L12.589285,6C13.920686,6,15,7.1192881,15,8.5C15,9.880711999999999,13.920686,11,12.589285,11L2.4107141,11C1.0793135,11,0,9.880711999999999,0,8.5Z" fill="#000000" fill-opacity="1"/><path d="M19.375,27.272728L22.9375,27.272728Q26.3806515,27.272728,28.815326,24.849701Q31.25,22.426678,31.25,19.000000999999997Q31.25,15.5733252,28.815326,13.1502991Q26.3806515,10.727273499999999,22.9375,10.7272725L19.3750005,10.727273C18.0633241,10.727273,17,9.6690373,17,8.3636367C17,7.058237,18.0633237,6.00000082242411,19.3749998,6.00000060110381L22.9375,6Q28.348165,6.00000025045992,32.174082999999996,9.8076127Q35.999998000000005,13.615226700000001,36,19.000000999999997Q35.999998000000005,24.384775,32.174082999999996,28.192389Q28.348166,32,22.9375,32L19.3749998,32C18.0633237,32,17,30.941765,17,29.636364C17,28.330963,18.0633237,27.272728,19.375,27.272728Z" fill-rule="evenodd" fill="#000000" fill-opacity="1"/><path d="M17,20.8823528L17,17.1176472C17,15.94810283,18.1192881,15,19.5,15C20.880712,15,22,15.94810283,22,17.1176472L22,20.8823528C22,22.051897,20.880712,23,19.5,23C18.1192881,23,17,22.051897,17,20.8823528Z" fill="#000000" fill-opacity="1" style="opacity:0.5;"/></svg>